0
SECTION
2
ENTITIES
0
LWPOLYLINE
8
ROOM
90
4
70
1
10
0
20
0
10
100
20
0
10
100
20
80
10
0
20
80
0
LINE
8
WALL
10
140
20
0
11
240
21
0
0
LINE
8
WALL
10
240
20
0
11
240
21
80
0
LINE
8
WALL
10
240
20
80
11
140
21
80
0
LINE
8
WALL
10
140
20
80
11
140
21
0
0
LWPOLYLINE
8
GUIDE
90
3
70
0
10
0
20
110
10
100
20
130
10
220
20
110
0
CIRCLE
8
COLUMN
10
280
20
40
40
20
0
ARC
8
DOOR
10
340
20
40
40
30
50
0
51
90
0
TEXT
8
LABEL
10
10
20
40
40
8
1
RUANG A
50
0
0
MTEXT
8
LABEL
10
150
20
40
40
7
41
80
1
AREA LINE\PBUKAN RUANGAN
0
ENDSEC
0
EOF
